<?xml version="1.0" encoding="utf-8"?>
<!-- Generator: Adobe Illustrator 23.0.6, SVG Export Plug-In . SVG Version: 6.00 Build 0)  -->
<svg version="1.1" id="Capa_1" xmlns="http://www.w3.org/2000/svg" xmlns:xlink="http://www.w3.org/1999/xlink" x="0px" y="0px"
	 viewBox="0 0 189 19" style="enable-background:new 0 0 189 19;" xml:space="preserve">
<rect y="0" width="3.1" height="18.9"/>
<rect x="4.6" y="0" width="1.5" height="18.9"/>
<rect x="9.2" y="0" width="1.5" height="18.9"/>
<rect x="16.9" y="0" width="1.5" height="18.9"/>
<rect x="20" y="0" width="3.1" height="18.9"/>
<rect x="27.7" y="0" width="1.5" height="18.9"/>
<rect x="33.8" y="0" width="1.5" height="18.9"/>
<rect x="36.9" y="0" width="3.1" height="18.9"/>
<rect x="43" y="0" width="1.5" height="18.9"/>
<rect x="50.7" y="0" width="6.1" height="18.9"/>
<rect x="58.4" y="0" width="1.5" height="18.9"/>
<rect x="63" y="0" width="1.5" height="18.9"/>
<rect x="67.6" y="0" width="1.5" height="18.9"/>
<rect x="73.7" y="0" width="1.5" height="18.9"/>
<rect x="79.9" y="0" width="3.1" height="18.9"/>
<rect x="84.5" y="0" width="1.5" height="18.9"/>
<rect x="90.6" y="0" width="6.1" height="18.9"/>
<rect x="98.3" y="0" width="1.5" height="18.9"/>
<rect x="101.4" y="0" width="1.5" height="18.9"/>
<rect x="106" y="0" width="1.5" height="18.9"/>
<rect x="110.6" y="0" width="6.1" height="18.9"/>
<rect x="118.3" y="0" width="1.5" height="18.9"/>
<rect x="121.4" y="0" width="3.1" height="18.9"/>
<rect x="127.5" y="0" width="1.5" height="18.9"/>
<rect x="135.2" y="0" width="3.1" height="18.9"/>
<rect x="139.8" y="0" width="3.1" height="18.9"/>
<rect x="144.4" y="0" width="6.1" height="18.9"/>
<rect x="152.1" y="0" width="1.5" height="18.9"/>
<rect x="155.2" y="0" width="1.5" height="18.9"/>
<rect x="159.8" y="0" width="6.1" height="18.9"/>
<rect x="169" y="0" width="3.1" height="18.9"/>
<rect x="176.7" y="0" width="4.6" height="18.9"/>
<rect x="182.8" y="0" width="1.5" height="18.9"/>
<rect x="185.9" y="0" width="3.1" height="18.9"/>
</svg>
